<svg width="24" height="25" viewBox="0 0 24 25" fill="none" xmlns="http://www.w3.org/2000/svg">
<g clip-path="url(#clip0_1_8403)">
<path d="M16.5836 13.3586H11.5841C11.3852 13.3586 11.1944 13.2795 11.0538 13.1389C10.9131 12.9982 10.8341 12.8075 10.8341 12.6086V3.44312C10.8341 3.2442 10.9131 3.05344 11.0538 2.91279C11.1944 2.77213 11.3852 2.69312 11.5841 2.69312C11.783 2.69312 11.9738 2.77213 12.1144 2.91279C12.2551 3.05344 12.3341 3.2442 12.3341 3.44312V11.8581H16.5836C16.7825 11.8581 16.9733 11.9371 17.1139 12.0778C17.2546 12.2184 17.3336 12.4092 17.3336 12.6081C17.3336 12.807 17.2546 12.9978 17.1139 13.1384C16.9733 13.2791 16.7825 13.3581 16.5836 13.3581V13.3586Z" fill="#9CA3AF"/>
<path d="M12 24.1926C9.33074 24.1985 6.73536 23.3161 4.62275 21.6846C2.51013 20.053 1.00035 17.765 0.331241 15.1809C-0.337868 12.5968 -0.128278 9.86359 0.926996 7.41175C1.98227 4.95991 3.82325 2.92882 6.15992 1.63845C8.4966 0.34807 11.1962 -0.128257 13.8333 0.284502C16.4705 0.697261 18.8955 1.97565 20.7261 3.91828C22.5568 5.8609 23.6891 8.35736 23.9448 11.0144C24.2004 13.6714 23.5649 16.338 22.1382 18.594C22.0855 18.6773 22.0169 18.7494 21.9363 18.8062C21.8558 18.863 21.7648 18.9033 21.6686 18.925C21.5724 18.9466 21.473 18.949 21.3758 18.9322C21.2787 18.9154 21.1858 18.8796 21.1025 18.8269C21.0193 18.7742 20.9472 18.7056 20.8904 18.625C20.8336 18.5444 20.7932 18.4535 20.7716 18.3573C20.75 18.2611 20.7475 18.1616 20.7643 18.0645C20.7812 17.9674 20.817 17.8745 20.8697 17.7912C22.2547 15.6012 22.7837 12.9774 22.3552 10.4218C21.9268 7.8662 20.5711 5.55831 18.5476 3.93972C16.524 2.32113 13.9747 1.5055 11.3875 1.64889C8.80018 1.79229 6.35661 2.88463 4.52432 4.71692C2.69203 6.54921 1.59969 8.99278 1.45629 11.5801C1.3129 14.1673 2.12853 16.7166 3.74712 18.7402C5.36572 20.7637 7.6736 22.1194 10.2292 22.5478C12.7848 22.9763 15.4086 22.4473 17.5986 21.0623C17.6819 21.0096 17.7748 20.9738 17.8719 20.9569C17.969 20.9401 18.0685 20.9426 18.1647 20.9642C18.2609 20.9858 18.3518 21.0262 18.4324 21.083C18.513 21.1398 18.5816 21.2119 18.6343 21.2951C18.687 21.3784 18.7228 21.4713 18.7396 21.5684C18.7564 21.6656 18.754 21.765 18.7324 21.8612C18.7107 21.9574 18.6704 22.0484 18.6136 22.1289C18.5568 22.2095 18.4847 22.2781 18.4014 22.3308C16.4871 23.5454 14.2671 24.1911 12 24.1926Z" fill="#9CA3AF"/>
</g>
<defs>
<clipPath id="clip0_1_8403">
<rect width="24" height="24" fill="white" transform="translate(0 0.192627)"/>
</clipPath>
</defs>
</svg>
