<svg width="16" height="17" viewBox="0 0 16 17" fill="none" xmlns="http://www.w3.org/2000/svg">
<g clip-path="url(#clip0_11_8738)">
<path d="M8.00004 16.1926C7.86744 16.1926 7.74026 16.1399 7.64649 16.0461C7.55272 15.9524 7.50004 15.8252 7.50004 15.6926C7.50004 13.5237 6.25784 11.885 5.05664 10.301C3.93554 8.82257 2.77734 7.29507 2.77734 5.41527C2.77734 4.03012 3.32759 2.70171 4.30704 1.72226C5.28648 0.742813 6.6149 0.192566 8.00004 0.192566C9.38519 0.192566 10.7136 0.742813 11.6931 1.72226C12.6725 2.70171 13.2227 4.03012 13.2227 5.41527C13.2227 7.29527 12.0645 8.82247 10.9434 10.301C9.74224 11.885 8.50004 13.5237 8.50004 15.6926C8.50004 15.8252 8.44737 15.9524 8.3536 16.0461C8.25983 16.1399 8.13265 16.1926 8.00004 16.1926ZM8.00004 1.19257C6.88053 1.19392 5.80725 1.63924 5.01563 2.43086C4.22402 3.22247 3.77869 4.29575 3.77734 5.41527C3.77734 6.95817 4.78614 8.28827 5.85354 9.69647C6.72255 10.7454 7.44469 11.9078 8.00004 13.1516C8.5554 11.9078 9.27753 10.7454 10.1465 9.69647C11.2139 8.28827 12.2227 6.95817 12.2227 5.41527C12.2214 4.29575 11.7761 3.22247 10.9845 2.43086C10.1928 1.63924 9.11956 1.19392 8.00004 1.19257Z" fill="#6B7280"/>
<path d="M8.00003 7.52168C7.5833 7.5216 7.17595 7.39794 6.82949 7.16635C6.48304 6.93475 6.21304 6.60562 6.05365 6.22058C5.89425 5.83553 5.85262 5.41187 5.93401 5.00316C6.0154 4.59445 6.21617 4.21906 6.51091 3.92445C6.80566 3.62985 7.18115 3.42926 7.58989 3.34806C7.99864 3.26686 8.42229 3.3087 8.80726 3.46828C9.19223 3.62785 9.52123 3.89801 9.75266 4.24457C9.98409 4.59114 10.1076 4.99855 10.1074 5.41528C10.1066 5.97385 9.88429 6.5093 9.48922 6.90418C9.09416 7.29905 8.55861 7.52112 8.00003 7.52168ZM8.00003 4.30778C7.78113 4.30786 7.56716 4.37284 7.38518 4.4945C7.2032 4.61617 7.06137 4.78905 6.97763 4.99131C6.89389 5.19357 6.872 5.41611 6.91472 5.63081C6.95744 5.8455 7.06285 6.04271 7.21763 6.19751C7.37241 6.35231 7.56962 6.45774 7.78431 6.50048C7.999 6.54321 8.22155 6.52134 8.42381 6.43762C8.62607 6.3539 8.79897 6.21209 8.92066 6.03012C9.04234 5.84815 9.10733 5.63418 9.10743 5.41528C9.10704 5.12169 8.99024 4.84024 8.78265 4.63263C8.57506 4.42502 8.29362 4.3082 8.00003 4.30778Z" fill="#6B7280"/>
</g>
<defs>
<clipPath id="clip0_11_8738">
<rect width="16" height="16" fill="white" transform="translate(0 0.192566)"/>
</clipPath>
</defs>
</svg>
